<?xml version="1.0"?><svg version="1.2" baseProfile="tiny-ps" viewBox="0 0 512 512" xmlns="http://www.w3.org/2000/svg" xmlns:xlink="http://www.w3.org/1999/xlink"><title>Ayush Kumar</title><g><g fill="#fff" transform="matrix(.1 0 0 -.1 0 512)"><path d="M2320 5109c-201-19-426-70-625-140l-119-42-155-78-156-77-105-69c-290-191-552-453-743-743l-69-105-77-156-78-155-42-119c-74-208-120-420-141-640L0 2675v-395h20v-27c0-90 68-382 130-553l40-113v-172l15-69c17-82 40-124 85-153l33-23h85l56-79c180-258 430-499 696-674l105-69 156-77 155-78 119-42c566-201 1164-201 1730 0l119 42 155 78 156 77 105 69c293 192 553 453 746 748l72 110 53 26c63 31 174 109 242 169l47 42v432l-51-49-51-50 6 20c39 133 71 312 87 485l12 125-6 170-6 170-16 100c-8 55-22 132-30 172l-16 71 35 71 36 71v611l-17 7c-10 4-66 6-124 5l-107-1-32-17-32-16-12-30-12-30-53 86c-110 180-284 388-448 537-535 484-1254 725-1963 657z"/></g><g fill="#cdcdcd" transform="matrix(.1 0 0 -.1 0 512)"><path d="M1505 3932c-372-95-719-482-986-1101l-58-134-128-32c-133-34-198-57-283-100l-50-25v-263l63 7c34 3 108 12 165 20l103 13-5-21c-32-115-90-365-107-461l-20-120-6-145-5-145 16-74c17-83 39-125 79-154l27-21 56-6 57-6 61 21c34 12 93 38 131 57l70 36 27 29c15 15 37 51 49 78l22 50 8 230c9 242 19 370 46 574l16 123 236-7c130-4 302-10 382-14l146-6-29-95c-45-147-95-346-112-445l-16-90v-180l15-63c33-139 96-207 223-241l43-12h184l59 16c92 24 196 71 282 127l79 52 79 76c94 90 154 171 203 277l37 78v170l-17 33-18 32h-51l-177-173-178-173-63-42c-70-47-98-57-134-48l-24 6-10 30c-6 16-14 60-17 97l-7 68 15 71 15 70 115 310c164 442 214 612 238 816l12 103-6 105-7 105-20 75c-12 41-38 109-58 150l-37 75-65 65-65 65-60 29c-33 16-91 38-130 49l-70 19-135 4-135 4-70-18zm203-508l52-26 24-41c30-53 46-128 46-218v-71l-20-96c-11-54-30-133-42-176l-23-79-395 2-395 2-9 9-9 9 33 93c46 132 92 228 155 323l54 82 68 64 69 64 50 27c28 15 75 34 105 42l54 15h66l65 1 52-26zm3197 497c-27-4-60-12-72-19l-23-13-20-42c-12-23-62-141-111-262-95-231-223-504-286-608-46-79-148-221-191-269l-33-37-36 15-36 15-66 6-66 5-63-16c-74-19-108-39-128-77l-14-28v-36c0-20 6-50 14-68l13-33 43-37 43-36 46-17c68-24 74-28 83-60 14-51 46-253 68-429 34-273 67-417 116-501l23-42 52-46 51-46 51-15 52-16h164l68 17 68 17 85 42c92 47 197 118 273 185l47 42v430l-102-94c-155-141-199-178-240-199l-37-19h-72l-24 24c-50 50-79 129-155 415-28 106-66 230-84 276l-34 83 95 62 95 63 113 109 113 109 75 97c92 120 160 230 215 345l42 89v607l-12 7c-16 10-144 14-203 5zm-1300-122c-167-16-319-41-450-74l-131-33-92-40c-50-22-114-54-143-73l-51-33-38-48-38-48-17-51-18-52v-61l-1-61 14-25c7-14 19-33 28-42l15-18h53l53 45c156 133 286 183 527 204 60 5 110 9 111 7 1-1-18-51-43-112-170-410-379-1177-424-1559l-12-100v-300l11-55 11-55 23-23 24-23 54-5 54-6 99 15 99 15 56 29 55 28 23 33 22 33 5 42c2 23 9 107 15 187 20 264 82 566 201 980 37 129 97 336 133 460l64 225 18 100c9 55 21 107 26 115 67 113 98 258 68 323l-11 24-38 22-38 21-113-1c-63-1-154-6-204-10z"/></g><g fill="#989898" transform="matrix(.1 0 0 -.1 0 512)"><path d="M1509 3931c-102-26-176-60-276-127l-83-55-87-82c-205-194-379-464-544-841l-56-129-109-28c-122-31-236-70-306-105l-48-24v-260h20c11 0 64 6 118 14 53 8 120 17 148 20l51 6-33-120c-70-256-113-519-114-695v-90l15-69c17-83 40-123 86-154l34-24 70 4 70 4 96 43 97 43 35 29 36 29 27 55 27 55 8 247c8 235 25 438 50 606l11 77h104c97 0 657-20 661-23 1-1-23-86-52-188-66-227-95-365-102-485l-6-90 12-70 12-69 26-58 26-58 40-34 40-34 51-18 51-18h240l70 23c302 101 589 382 635 622l9 47-9 63-9 62-17 19-17 19h-36l-147-146c-145-145-268-250-326-280l-29-15-37 3-37 3-13 28-13 27-6 68-6 69 12 69 12 69 111 295c173 465 215 604 244 825l16 120-6 95-6 95-21 85-21 85-41 80-42 80-55 55-55 55-62 33-62 32-78 21-78 21-125 4-125 4-76-19zm201-503l45-23 23-34c12-19 29-57 37-84l15-51v-174l-15-78c-8-43-27-122-42-175l-27-98-405 6c-223 3-407 7-409 8-1 1 15 52 37 113 72 203 160 353 271 462l56 55 63 34c36 19 85 40 110 47l46 12 75 1 76 1 44-22zm3194 494l-50-7-25-16-24-16-27-64c-15-35-68-163-118-284s-124-287-165-370l-73-150-74-111c-40-61-95-138-123-173l-50-62-20 7c-11 3-42 12-70 21l-50 14-60-5c-33-3-81-12-106-21l-46-16-29-30-29-30v-116l28-36 28-37 45-26c24-14 63-32 86-39l42-12 8-29c15-54 47-258 68-429 44-355 80-480 166-575l36-39 56-28 56-27 90-4 91-4 69 16 69 16 83 39c95 45 205 118 282 188l53 48-3 211-3 211-128-118c-70-65-148-133-174-150l-46-32-49-5-48-5-33 35-33 35-27 69c-14 38-43 130-62 204-59 221-104 369-126 413l-22 41 19 13c11 8 58 41 106 75 49 33 127 97 175 142l87 81 80 100c100 126 171 235 235 364l51 101v609l-12 7c-16 10-143 14-204 6zm-1274-123c-311-25-573-85-745-171-127-63-179-108-223-193l-25-50-4-80-4-80 18-34c10-19 25-39 34-44l16-10 24 6c13 4 53 32 89 62l65 56 80 40 80 39 79 20c77 19 303 47 312 38 2-3-20-65-50-139-146-365-315-960-393-1388l-27-146v-230l-1-230 20-40 20-40 39-13 39-12 100 10 101 10 55 18 56 17 41 40 42 40 11 40 11 40v72c0 99 33 349 70 529 41 199 88 376 220 828l110 378 21 112 20 111 29 56c16 31 36 85 45 120 27 117 17 165-44 206l-34 23-96-1c-53-1-143-6-201-10z"/></g><g fill="#686868" transform="matrix(.1 0 0 -.1 0 512)"><path d="M1540 3936c-272-59-524-262-753-608-94-141-161-268-253-473l-71-160-120-30c-131-34-185-53-280-97l-63-29v-259h13c7 0 75 9 152 20s147 20 156 20h15l-43-172c-25-95-55-238-69-317l-24-144-6-131-6-131 16-74c18-88 40-128 87-159l34-24 70 4 70 3 115 57 115 56 31 43c17 24 36 60 43 79l12 35 9 250c10 264 30 498 56 638l6 27h141c152 0 618-18 624-24 2-2-14-64-36-137-59-196-99-368-112-484l-12-103 11-79 11-80 22-58 22-58 41-41 41-41 55-19 55-18 85-5 85-5 71 15c40 9 105 30 147 47l75 31 94 62 93 61 70 71c81 80 143 167 188 263l32 67v203l-19 21c-11 12-26 21-33 21h-15l-152-148c-179-174-275-254-339-282l-45-20-26 9-25 10-12 23-12 22-5 91-4 90 21 77c11 43 70 209 130 370 159 425 212 617 231 833l9 101-9 94c-12 121-32 196-77 290l-36 75-71 71-71 71-58 27c-32 15-93 36-135 47l-77 20-110 4-110 5-65-14zm165-505l41-18 27-32 27-32 16-56 16-55v-91l1-92-12-60c-7-33-26-111-43-173l-31-114-406 7c-223 4-407 8-408 10-2 1 11 44 28 95 82 246 213 449 354 545l55 39 68 23 67 22 80 1h80l40-19zm3199 491l-50-7-25-16-24-16-104-254c-202-493-322-716-503-933l-24-29-55 18-54 19-65-1h-65l-55-16-56-16-21-23c-47-50-53-101-22-166l22-44 60-39 59-39 35-6 34-6 10-25c13-36 46-233 74-456 50-392 95-519 214-601l41-29 52-14 52-13h133l77 20 77 19 82 39c86 41 190 111 270 182l47 42v429l-117-110c-65-61-142-129-171-151l-54-40-38-10-38-10-24 9c-71 27-114 130-209 501-17 69-48 165-67 214l-36 90 10 3c28 9 169 111 244 175 162 140 346 380 450 588l50 100v609l-12 7c-16 10-143 14-204 6zm-1194-119c-333-20-658-91-848-187l-69-35-55-50-55-51-23-52-23-53-5-71-4-70 20-41 21-41 16-6c31-12 43-6 121 60l79 65 70 34c39 18 106 43 150 55l80 20 117 12c65 7 120 9 124 6 3-4-17-63-45-132-175-430-378-1187-421-1571-20-178-8-436 22-484 7-11 23-24 35-30l24-11h164l67 14c103 22 163 59 195 119l14 29 9 146c21 341 80 617 285 1317 107 366 121 419 141 530l14 80 35 70 35 71 11 74 12 75-16 37-15 37-41 20-40 21-73-2c-40-1-98-3-128-5z"/></g><g fill="#363636" transform="matrix(.1 0 0 -.1 0 512)"><path d="M1600 3943c-136-17-245-61-381-154l-92-63-91-91-91-90-72-97c-134-177-277-436-373-675l-33-82-76-16c-110-25-225-62-313-102l-78-36v-259l28 5c57 11 303 39 307 35 2-2-4-33-15-69-61-199-118-518-127-709l-5-115 16-74c18-88 40-128 87-159l34-24 65 4 65 4 100 44 100 44 42 39 42 39 19 51 20 52 6 190c10 274 42 638 62 708l5 17 177-1c211 0 581-15 589-22 3-3-11-59-30-124-53-177-74-257-98-373l-22-105v-220l16-63c9-35 29-84 43-108l27-46 36-23c20-14 56-31 81-40l45-16 75-6 76-6 82 17 82 17 79 33c217 92 419 281 513 482l31 66 5 68c2 38 1 85-2 105l-7 36-20 20c-10 10-24 19-30 19s-90-77-187-171l-176-171-69-48-68-49-30-6-30-7-24 16-24 16-10 37-11 38v157l16 61c9 34 53 161 99 282 168 446 211 585 245 783l20 114v236l-14 74c-16 84-46 167-84 236l-26 47-62 63-62 62-74 35-73 35-70 14c-78 16-231 26-285 19zm61-494l51-11 39-35 38-35 20-51 19-52 7-65 7-65-11-79c-11-79-34-181-66-291l-17-58-406 7c-224 4-408 9-411 11-7 8 71 218 112 300 57 114 110 190 191 271l71 71 75 37 75 36 60 9c85 12 88 12 146 0zm3243 473l-50-7-26-17-26-17-8-23c-13-44-195-480-253-607-96-211-211-400-328-538l-44-52-42 19-42 20h-151l-51-15c-28-8-62-24-76-35l-26-21-10-36-10-37 11-43 10-43 48-43 48-43 58-19c33-11 60-20 61-20 9-4 48-230 68-395 67-522 111-636 277-709l45-21 70-6 69-7 85 18 84 17 74 31 75 30 85 58c48 32 110 79 139 104l52 47v430l-127-121c-136-130-195-175-256-193l-39-12-33 18-33 18-30 57c-37 70-69 168-126 388-25 95-60 208-77 253-18 44-30 82-28 83 2 2 42 29 89 60 244 162 469 427 624 734l36 73v609l-12 7c-16 10-143 14-204 6zm-1154-119c-222-10-500-53-672-104l-103-30-92-46-93-45-49-44-50-45-26-55-26-54-6-64-6-63 12-35 12-35 24-23 25-23 26 12c14 6 48 30 75 54 27 23 77 59 111 80l63 38 80 25c91 29 243 54 326 54h57l-58-142c-185-458-376-1183-421-1593l-12-110 6-135 6-135 11-37 11-37 27-22 27-21 110 5 110 6 68 21 68 21 39 39 39 39 5 33c3 18 10 98 16 178 24 328 84 604 270 1240 106 359 141 494 160 604l11 69 20 25c10 14 28 54 39 91l21 66 1 60 1 61-12 23-13 23-41 19-42 19-45-2c-25-1-74-3-110-5z"/></g><g transform="matrix(.1 0 0 -.1 0 512)"><path d="M1490 3920c-93-25-192-75-293-147l-77-56-98-101c-198-204-351-448-503-803-28-65-51-119-52-120-2-1-63-18-137-37l-135-34-85-37c-46-20-90-41-97-47l-13-10v-250l20 5c42 11 309 41 315 35 3-3-5-46-19-94-64-222-112-493-122-684l-6-115 16-74c18-88 40-128 87-159l34-24 65 5 65 5 100 43 100 44 47 46 47 47 15 53 14 54 6 200c7 252 48 681 67 699 5 6 703-13 745-19l31-5-48-163c-27-89-61-216-76-282l-28-120v-310l24-60 24-59 41-43 41-43 60-21 60-22h200l65 17c84 23 190 72 279 130l70 45 81 78 81 77 53 80c29 45 63 105 75 135l23 54 5 52c3 29 2 74-1 100l-7 46-20 20-19 19-23-11c-12-7-98-87-192-178l-170-166-64-43c-35-23-75-45-89-49l-25-6-26 9-26 9-12 35-12 35v95l-1 95 19 65c10 36 68 198 130 362 114 305 165 464 203 641l22 102v175l1 175-23 80-23 79-37 70-37 71-60 61-60 61-65 31c-36 17-92 39-125 48l-60 16-145 4-145 4-75-20zm237-496l47-29 23-45 23-45 11-60 11-60-6-85-6-85-25-105c-14-58-33-127-42-154l-16-49-403 5c-223 3-407 8-410 11-17 17 82 269 152 387l49 82 72 78 72 78 49 31c51 32 111 57 177 71l40 9 68-3 67-3 47-29zm3177 498l-50-7-27-18-26-17-9-32c-22-76-210-516-287-673l-83-170-80-120c-44-66-100-143-126-172l-46-51-53 20-52 20-85-4-85-5-48-23-48-23-14-28-15-28v-88l23-34 23-34 48-33 49-32 42-11 43-11 15-61c15-61 34-183 77-502 26-186 58-321 93-391l25-49 49-46 49-46 50-16c27-8 70-18 97-22l47-6 76 11c173 26 339 110 497 250l47 42v430l-126-121c-69-67-150-138-180-158l-53-35-46-6-45-5-34 37-34 36-30 78c-17 42-51 156-77 252-53 200-90 319-116 372l-19 36 99 66 98 65 103 98c163 155 295 330 409 544l51 96v612l-12 7c-16 10-143 14-204 6zm-1284-129c-251-27-424-58-569-105l-96-30-90-46-90-47-43-43-44-43-24-53-24-53-6-59-6-59 15-40 14-39 26-20 26-19 38 27c21 15 69 51 107 80l69 54 76 30c42 17 112 38 156 47l80 17 103 5 104 6-17-39c-193-447-410-1237-461-1674l-16-145 6-124c4-68 11-143 17-167l11-43 20-18 20-18h97l96 1 61 13 61 13 49 27 48 26 22 38 21 38 7 126c17 330 77 611 266 1264 118 404 155 545 165 624l7 50 28 55c15 30 35 79 44 109l16 55v118l-34 34-34 34-143-2c-79 0-160-3-179-5z"/></g></g></svg>